M48
INCH
T01C0.0150
T02C0.0200
T03C0.0400
T04C0.0600
T05C0.0500
T06C0.1299
%
T01
X-013400Y-003000
X-016800Y-003000
X-012600Y-003000
X-018400Y-003200
X-014600Y+000800
X-034600Y-006800
X-034600Y-005800
X-012800Y+000800
X-012400Y-001200
X-012600Y-000400
X-007200Y+000400
X-005800Y+001400
X-012800Y+002000
X-005400Y+001000
X-005400Y+002800
X-020600Y+001400
X-025600Y+005200
X-019800Y+001000
X-021400Y+001000
X-025200Y+005600
X-021000Y+001800
X-026400Y+001800
X-026400Y+002800
X-017400Y+002800
X-006000Y+002400
X-007400Y+002800
X-016200Y+009400
X-016200Y+010400
X-013200Y+010400
X-013200Y+008000
X-006400Y+008000
X-015800Y+000800
X-021600Y-003400
X-021600Y-002400
X-021600Y+000200
X-026800Y+001600
X-014800Y+003200
X-005000Y-002800
X-029600Y+000400
X-011000Y+003000
X-027600Y+002000
X-019600Y+007800
X-021800Y+008200
X-018600Y+011000
X-015200Y+004800
X-014600Y+005200
X-015200Y+005600
X-014200Y+007000
X-013800Y+005000
X-015200Y+004400
X-017800Y+010000
X-014200Y+009200
X-022200Y+009800
X-017400Y+004600
X-021600Y+009000
X-020600Y+010400
X-024000Y+010200
X-024000Y+011200
X-017000Y+010400
X-017000Y+003600
X-008400Y+003800
X-007000Y+010600
X-019200Y-000800
X-009000Y-006200
X-007200Y-006200
X-003400Y-004600
X-003400Y+010400
X-010000Y+003800
X-012800Y+004000
X-011200Y+004200
X-013000Y+004800
X-011200Y+004600
X-011200Y+010000
X-013000Y+012200
X-013400Y+005600
X-017600Y-001200
X-003800Y-003200
X-017200Y-001800
X-016800Y-001400
X-017000Y+001000
X-014800Y+001600
X-004200Y-000800
X-004200Y+011000
X-012800Y+003200
X-012800Y+003600
X-014400Y-001800
X-015000Y-001800
X-005600Y-010200
X-004600Y-007600
X-004200Y-010200
X-004600Y-008200
X-017600Y+007600
X-025800Y+008200
X-016200Y+000800
X-025600Y+001200
X-028800Y+004800
X-032600Y+002400
X-033600Y+003400
X-034800Y+003200
X-029800Y+003800
X-020000Y+009000
X-009400Y+005800
X-008400Y+007400
X-019200Y+005600
X-017200Y+005600
X-028600Y-008600
X-016200Y+002200
X-035000Y-000800
X-028200Y+006000
X-014400Y-000800
X-028000Y-005200
X-018000Y+008000
X-016800Y+008400
X-005600Y+013400
X-019000Y+011000
X-019000Y+009400
X-016800Y+007200
X-013000Y-002200
X-015800Y+001800
X-010000Y-011000
X-022600Y-005000
X-022600Y+003000
X-018800Y+005000
X-015400Y+002200
X-006600Y+001000
X-009600Y-006000
X-014000Y-006000
X-016600Y+006800
X-023000Y+003200
X-017000Y-007000
X-010000Y-006600
X-007310Y-012260
X-006605Y-012259
T02
X-034800Y+007200
X-024200Y-007200
X-013200Y+001200
X-007600Y+006400
X-012400Y-004800
X-008800Y+000000
X-019200Y-004400
X-002600Y-003800
X-002600Y+009000
X-020600Y+009000
X-020600Y+009800
X-027600Y+005600
X-027600Y+003000
X-010600Y+000000
X-027200Y-004400
X-019800Y-001800
X-009400Y-004800
X-023800Y-004600
X-006000Y-001600
X-004600Y-001600
X-004800Y+011800
X-026200Y-005000
X-021000Y-000400
X-007000Y+005200
X-030800Y-003800
X-015600Y-007000
X-031200Y-008200
X-029600Y+007200
X-029800Y-010800
X-029600Y+004400
X-012000Y+007000
X-006400Y+007000
X-030800Y-002600
X-031200Y-005800
X-023000Y-005800
X-023800Y-000400
X-021000Y-005600
X-029600Y+003000
X-018000Y+007000
X-007400Y-007600
X-007400Y-008200
X-024800Y-002400
X-008300Y-008790
X-006600Y-003200
X-009930Y-007716
X-007800Y-002800
T03
X-024566Y+011716
X-024566Y+012716
X-023566Y+011716
X-023566Y+012716
X-022566Y+011716
X-022566Y+012716
X-021566Y+011716
X-021566Y+012716
X-020566Y+011716
X-020566Y+012716
X-019566Y+011716
X-019566Y+012716
X-018566Y+011716
X-018566Y+012716
X-017566Y+011716
X-017566Y+012716
X-016566Y+011716
X-016566Y+012716
X-015566Y+011716
X-015566Y+012716
X-014566Y+011716
X-014566Y+012716
X-013566Y+011716
X-013566Y+012716
X-012566Y+011716
X-012566Y+012716
X-011566Y+011716
X-011566Y+012716
X-010566Y+011716
X-010566Y+012716
X-009566Y+011716
X-009566Y+012716
X-008566Y+011716
X-008566Y+012716
X-007566Y+011716
X-007566Y+012716
X-006566Y+011716
X-006566Y+012716
X-005566Y+011716
X-005566Y+012716
X-001062Y-002519
X-002062Y-002519
X-001062Y-001519
X-002062Y-001519
X-001062Y-000519
X-002062Y-000519
X-001062Y+000480
X-002062Y+000480
X-001062Y+001480
X-002062Y+001480
X-001062Y+002480
X-002062Y+002480
X-001062Y+003480
X-002062Y+003480
X-001062Y+004480
X-002062Y+004480
X-001062Y+005480
X-002062Y+005480
X-001062Y+006480
X-002062Y+006480
X-001062Y+007480
X-002062Y+007480
X-001062Y+008480
X-002062Y+008480
X-035393Y-000299
X-036393Y-000299
X-035393Y+000700
X-036393Y+000700
X-035393Y+001700
X-036393Y+001700
X-035393Y+002700
X-036393Y+002700
X-035393Y+003700
X-036393Y+003700
X-035393Y+004700
X-036393Y+004700
X-035393Y+005700
X-036393Y+005700
X-035393Y+006700
X-036393Y+006700
X-035393Y+007700
X-036393Y+007700
X-035393Y+008700
X-036393Y+008700
X-014409Y-007716
X-013409Y-007716
X-012409Y-007716
X-011409Y-007716
X-025060Y+001360
X-024060Y+001360
X-031102Y+011929
X-030102Y+011929
X-029102Y+011929
X-017992Y-005708
X-018992Y-005708
X-019992Y-005708
X-032577Y+008656
X-031577Y+008656
X-030577Y+008656
X-028207Y+008645
X-027207Y+008645
X-026207Y+008645
X-009448Y+004645
X-008448Y+004645
X-007448Y+004645
X-006448Y+004645
X-022100Y+004610
X-023100Y+004610
X-024100Y+004610
X-025100Y+004610
T04
X-013661Y-011574
X-011929Y-011574
X-018228Y-008543
X-020198Y-008543
X-022168Y-008543
X-024138Y-008543
T05
X-028070Y-012322
X-029448Y-012322
X-030826Y-012322
X-032204Y-012322
X-035944Y-007952
X-035944Y-006574
X-035944Y-005196
X-035944Y-003818
X-019409Y-012244
X-020787Y-012244
X-022165Y-012244
X-023543Y-012244
X-001535Y-005629
X-001535Y-007007
X-001535Y-008385
X-001535Y-009763
T06
X-035826Y+012204
X-001574Y+012204
X-001574Y-012204
X-035826Y-012204
M30
