M48
INCH
T01C0.0200
T02C0.0150
T03C0.0500
T04C0.1299
T05C0.0400
%
T01
X-011740Y-009750
X-004240Y-011750
X-007007Y+006586
X-007007Y-009004
X-013555Y-006619
X-013278Y-000371
X-011496Y+007519
X-011496Y+009251
X-007007Y+007964
X-007007Y+005208
X-007007Y+003830
X-007007Y+002452
X-007007Y+001074
X-007007Y-000736
X-007047Y-002114
X-007047Y-003492
X-007007Y-004870
X-007007Y-006248
X-007047Y-007626
T02
X-011744Y-007350
X-011771Y+000877
X-014740Y+005750
X-017740Y+013000
X-013101Y+003953
X-013084Y-004133
X-011153Y-007350
X-011153Y+000877
X-010563Y-007350
X-010563Y+000877
X-009990Y-008750
X-009972Y+000877
X-009972Y-007350
X-014189Y-001475
X-017758Y+007592
T03
X-001389Y+010433
X-001389Y+009055
X-001389Y+007677
X-001389Y+006299
X-001389Y+004921
X-001389Y+003543
X-001389Y+002165
X-001389Y+000787
X-001389Y-000787
X-001389Y-002165
X-001389Y-003543
X-001389Y-004921
X-001389Y-006299
X-001389Y-007677
X-001389Y-009055
X-001389Y-010433
T04
X-021259Y+012598
X-001574Y-012598
X-021259Y-012598
X-001574Y+012598
T05
X-016929Y+011929
X-016929Y+012929
X-015929Y+011929
X-015929Y+012929
X-014929Y+011929
X-014929Y+012929
X-013929Y+011929
X-013929Y+012929
X-012929Y+011929
X-012929Y+012929
X-011929Y+011929
X-011929Y+012929
X-010929Y+011929
X-010929Y+012929
X-009929Y+011929
X-009929Y+012929
X-008929Y+011929
X-008929Y+012929
X-007929Y+011929
X-007929Y+012929
X-006929Y+011929
X-006929Y+012929
X-005929Y+011929
X-005929Y+012929
X-016929Y-012913
X-016929Y-011913
X-015929Y-012913
X-015929Y-011913
X-014929Y-012913
X-014929Y-011913
X-013929Y-012913
X-013929Y-011913
X-012929Y-012913
X-012929Y-011913
X-011929Y-012913
X-011929Y-011913
X-010929Y-012913
X-010929Y-011913
X-009929Y-012913
X-009929Y-011913
X-008929Y-012913
X-008929Y-011913
X-007929Y-012913
X-007929Y-011913
X-006929Y-012913
X-006929Y-011913
X-005929Y-012913
X-005929Y-011913
M30
