M48
INCH
T01C0.0150
T02C0.0200
T03C0.0500
T04C0.0400
T05C0.1299
%
T01
X+014435Y+006994
X+014435Y+003494
X+014935Y+003244
X+009935Y-003005
X+014435Y-006505
X+011185Y-013505
X+011935Y-000005
X+011935Y-005005
X+011935Y+002994
X+012935Y-006505
X+012685Y+001244
X+008185Y-007255
X+011435Y+002994
X+012435Y-001255
X+010685Y-001255
X+009935Y+003494
X+008185Y+009744
X+008685Y+010994
X+014435Y+007994
X+014935Y+007592
X+014935Y+004994
X+015935Y-007505
X+009935Y-004505
X+014935Y-003005
X+014435Y-003255
X+014435Y+004994
T02
X+015435Y+010994
X+012185Y-010755
X+015935Y-001255
X+013435Y+006744
X+012685Y+006744
X+012685Y+010494
X+014685Y+012494
X+016185Y+001244
X+014685Y+001244
X+017685Y-001255
X+017683Y-000202
X+013185Y+000744
T03
X+018627Y+010433
X+018627Y+009055
X+018627Y+007677
X+018627Y+006299
X+018627Y+004921
X+018627Y+003543
X+018627Y+002165
X+018627Y+000787
X+018627Y-000787
X+018627Y-002165
X+018627Y-003543
X+018627Y-004921
X+018627Y-006299
X+018627Y-007677
X+018627Y-009055
X+018627Y-010433
T04
X+005112Y+012001
X+005112Y+013001
X+006112Y+012001
X+006112Y+013001
X+007112Y+012001
X+007112Y+013001
X+008112Y+012001
X+008112Y+013001
X+009112Y+012001
X+009112Y+013001
X+010112Y+012001
X+010112Y+013001
X+011112Y+012001
X+011112Y+013001
X+012112Y+012001
X+012112Y+013001
X+013112Y+012001
X+013112Y+013001
X+014112Y+012001
X+014112Y+013001
X+005112Y-012879
X+005112Y-011879
X+006112Y-012879
X+006112Y-011879
X+007112Y-012879
X+007112Y-011879
X+008112Y-012879
X+008112Y-011879
X+009112Y-012879
X+009112Y-011879
X+010112Y-012879
X+010112Y-011879
X+011112Y-012879
X+011112Y-011879
X+012112Y-012879
X+012112Y-011879
X+013112Y-012879
X+013112Y-011879
X+014112Y-012879
X+014112Y-011879
T05
X+001147Y+012592
X+018470Y-012604
X+001147Y-012604
X+018470Y+012592
M30
