M48
INCH
T01C0.0150
T02C0.0200
T03C0.0500
T04C0.0400
T05C0.1299
%
T01
X+014435Y+006994
X+014435Y+007994
X+014435Y+003494
X+014935Y+003244
X+014935Y+004994
X+014435Y+004994
X+014935Y+007592
X+009935Y+003494
X+009935Y-003005
X+012435Y-001255
X+014435Y-006505
X+015935Y-007505
X+014935Y-003005
X+014435Y-003255
X+010685Y-001255
X+009935Y-004505
X+011400Y+003400
X+012400Y-005000
X+011000Y-005000
X+011800Y+001400
X+008685Y+010994
X+008185Y+009744
X+008200Y-000400
X+010800Y-007400
T02
X+012600Y-008200
X+012600Y+001200
X+013185Y+000744
X+017683Y-000202
X+013435Y+006744
X+017800Y+005400
X+011600Y+006600
X+011600Y+008800
X+013800Y+008800
X+017000Y+005400
X+013200Y-003400
X+013200Y-004800
X+014685Y+001244
X+016185Y+001244
X+014685Y+012494
T03
X+018627Y+010433
X+018627Y+009055
X+018627Y+007677
X+018627Y+006299
X+018627Y+004921
X+018627Y+003543
X+018627Y+002165
X+018627Y+000787
X+018627Y-000787
X+018627Y-002165
X+018627Y-003543
X+018627Y-004921
X+018627Y-006299
X+018627Y-007677
X+018627Y-009055
X+018627Y-010433
T04
X+005112Y+012001
X+005112Y+013001
X+006112Y+012001
X+006112Y+013001
X+007112Y+012001
X+007112Y+013001
X+008112Y+012001
X+008112Y+013001
X+009112Y+012001
X+009112Y+013001
X+010112Y+012001
X+010112Y+013001
X+011112Y+012001
X+011112Y+013001
X+012112Y+012001
X+012112Y+013001
X+013112Y+012001
X+013112Y+013001
X+014112Y+012001
X+014112Y+013001
X+005112Y-012879
X+005112Y-011879
X+006112Y-012879
X+006112Y-011879
X+007112Y-012879
X+007112Y-011879
X+008112Y-012879
X+008112Y-011879
X+009112Y-012879
X+009112Y-011879
X+010112Y-012879
X+010112Y-011879
X+011112Y-012879
X+011112Y-011879
X+012112Y-012879
X+012112Y-011879
X+013112Y-012879
X+013112Y-011879
X+014112Y-012879
X+014112Y-011879
T05
X+001147Y+012592
X+018470Y-012604
X+001147Y-012604
X+018470Y+012592
M30
